<svg width="184" height="49" viewBox="0 0 184 49" fill="none" xmlns="http://www.w3.org/2000/svg">
<path d="M0.546875 48V0.727271H13.3807V37.6591H32.4929V48H0.546875ZM81.6353 24.3636C81.6353 29.6264 80.612 34.0659 78.5653 37.6822C76.5187 41.283 73.7565 44.0144 70.2788 45.8764C66.801 47.723 62.9232 48.6463 58.6452 48.6463C54.3365 48.6463 50.4433 47.7153 46.9656 45.8533C43.5032 43.976 40.7487 41.2369 38.7021 37.636C36.6708 34.0198 35.6552 29.5956 35.6552 24.3636C35.6552 19.1009 36.6708 14.669 38.7021 11.0682C40.7487 7.45194 43.5032 4.72052 46.9656 2.87393C50.4433 1.01195 54.3365 0.0809641 58.6452 0.0809641C62.9232 0.0809641 66.801 1.01195 70.2788 2.87393C73.7565 4.72052 76.5187 7.45194 78.5653 11.0682C80.612 14.669 81.6353 19.1009 81.6353 24.3636ZM68.4322 24.3636C68.4322 21.5322 68.0552 19.147 67.3011 17.2081C66.5625 15.2538 65.4622 13.7765 64.0004 12.7763C62.5539 11.7607 60.7688 11.2528 58.6452 11.2528C56.5217 11.2528 54.7289 11.7607 53.267 12.7763C51.8206 13.7765 50.7203 15.2538 49.9663 17.2081C49.2276 19.147 48.8583 21.5322 48.8583 24.3636C48.8583 27.1951 49.2276 29.5879 49.9663 31.5423C50.7203 33.4812 51.8206 34.9585 53.267 35.9741C54.7289 36.9743 56.5217 37.4744 58.6452 37.4744C60.7688 37.4744 62.5539 36.9743 64.0004 35.9741C65.4622 34.9585 66.5625 33.4812 67.3011 31.5423C68.0552 29.5879 68.4322 27.1951 68.4322 24.3636ZM118.273 16.331C118.073 15.5154 117.757 14.7998 117.326 14.1843C116.896 13.5534 116.357 13.0225 115.711 12.5916C115.08 12.1454 114.341 11.8145 113.495 11.5991C112.664 11.3683 111.748 11.2528 110.748 11.2528C108.594 11.2528 106.755 11.7683 105.231 12.7994C103.723 13.8304 102.569 15.3153 101.769 17.2543C100.984 19.1932 100.592 21.5322 100.592 24.2713C100.592 27.0412 100.969 29.411 101.723 31.3807C102.477 33.3504 103.6 34.8584 105.093 35.9048C106.585 36.9512 108.44 37.4744 110.656 37.4744C112.61 37.4744 114.233 37.1897 115.526 36.6204C116.834 36.051 117.811 35.2431 118.457 34.1967C119.104 33.1503 119.427 31.9193 119.427 30.5035L121.643 30.7344H110.84V21.5938H131.799V28.1491C131.799 32.4579 130.883 36.1433 129.052 39.2056C127.236 42.2525 124.728 44.5915 121.527 46.2227C118.342 47.8384 114.687 48.6463 110.563 48.6463C105.962 48.6463 101.923 47.6692 98.445 45.7148C94.9673 43.7605 92.2513 40.9753 90.297 37.359C88.358 33.7428 87.3886 29.4418 87.3886 24.456C87.3886 20.5473 87.981 17.085 89.1659 14.0689C90.3662 11.0528 92.0281 8.50604 94.1517 6.42862C96.2753 4.33582 98.7297 2.75852 101.515 1.69673C104.3 0.619553 107.286 0.0809641 110.471 0.0809641C113.272 0.0809641 115.872 0.481059 118.273 1.28125C120.689 2.06605 122.82 3.18939 124.667 4.65128C126.529 6.09777 128.029 7.81356 129.168 9.79865C130.306 11.7837 130.999 13.9612 131.245 16.331H118.273ZM183.579 24.3636C183.579 29.6264 182.555 34.0659 180.509 37.6822C178.462 41.283 175.7 44.0144 172.222 45.8764C168.744 47.723 164.867 48.6463 160.589 48.6463C156.28 48.6463 152.387 47.7153 148.909 45.8533C145.447 43.976 142.692 41.2369 140.645 37.636C138.614 34.0198 137.599 29.5956 137.599 24.3636C137.599 19.1009 138.614 14.669 140.645 11.0682C142.692 7.45194 145.447 4.72052 148.909 2.87393C152.387 1.01195 156.28 0.0809641 160.589 0.0809641C164.867 0.0809641 168.744 1.01195 172.222 2.87393C175.7 4.72052 178.462 7.45194 180.509 11.0682C182.555 14.669 183.579 19.1009 183.579 24.3636ZM170.376 24.3636C170.376 21.5322 169.999 19.147 169.244 17.2081C168.506 15.2538 167.406 13.7765 165.944 12.7763C164.497 11.7607 162.712 11.2528 160.589 11.2528C158.465 11.2528 156.672 11.7607 155.21 12.7763C153.764 13.7765 152.664 15.2538 151.91 17.2081C151.171 19.147 150.802 21.5322 150.802 24.3636C150.802 27.1951 151.171 29.5879 151.91 31.5423C152.664 33.4812 153.764 34.9585 155.21 35.9741C156.672 36.9743 158.465 37.4744 160.589 37.4744C162.712 37.4744 164.497 36.9743 165.944 35.9741C167.406 34.9585 168.506 33.4812 169.244 31.5423C169.999 29.5879 170.376 27.1951 170.376 24.3636Z" fill="url(#paint0_linear_3_165)"/>
<defs>
<linearGradient id="paint0_linear_3_165" x1="186.5" y1="24.5" x2="-2.5" y2="24.5" gradientUnits="userSpaceOnUse">
<stop stop-color="#FE747B"/>
<stop offset="0.485577" stop-color="#EABBD5"/>
<stop offset="1" stop-color="#D53B91"/>
</linearGradient>
</defs>
</svg>
